<svg version="1.1" viewBox="0.0 0.0 764.3438320209974 468.17847769028873" fill="none" stroke="none" stroke-linecap="square" stroke-miterlimit="10" xmlns:xlink="http://www.w3.org/1999/xlink" xmlns="http://www.w3.org/2000/svg"><clipPath id="p.0"><path d="m0 0l764.3438 0l0 468.17847l-764.3438 0l0 -468.17847z" clip-rule="nonzero"/></clipPath><g clip-path="url(#p.0)"><path fill="#000000" fill-opacity="0.0" d="m0 0l764.3438 0l0 468.17847l-764.3438 0z" fill-rule="evenodd"/><path fill="#20b7b7" d="m498.6824 243.03467l0 0c0 -15.006485 53.700592 -27.171646 119.94357 -27.171646c66.24304 0 119.9436 12.165161 119.9436 27.171646l0 108.686646c0 15.00647 -53.70056 27.17163 -119.9436 27.17163c-66.24298 0 -119.94357 -12.165161 -119.94357 -27.17163z" fill-rule="evenodd"/><path fill="#000000" fill-opacity="0.0" d="m738.5696 243.03467l0 0c0 15.0065 -53.70056 27.171661 -119.9436 27.171661c-66.24298 0 -119.94357 -12.165161 -119.94357 -27.171661" fill-rule="evenodd"/><path fill="#000000" fill-opacity="0.0" d="m498.6824 243.03467l0 0c0 -15.006485 53.700592 -27.171646 119.94357 -27.171646c66.24304 0 119.9436 12.165161 119.9436 27.171646l0 108.686646c0 15.00647 -53.70056 27.17163 -119.9436 27.17163c-66.24298 0 -119.94357 -12.165161 -119.94357 -27.17163z" fill-rule="evenodd"/><path stroke="#ffffff" stroke-width="16.0" stroke-linejoin="round" stroke-linecap="butt" d="m738.5696 243.03467l0 0c0 15.0065 -53.70056 27.171661 -119.9436 27.171661c-66.24298 0 -119.94357 -12.165161 -119.94357 -27.171661" fill-rule="evenodd"/><path stroke="#ffffff" stroke-width="16.0" stroke-linejoin="round" stroke-linecap="butt" d="m498.6824 243.03467l0 0c0 -15.006485 53.700592 -27.171646 119.94357 -27.171646c66.24304 0 119.9436 12.165161 119.9436 27.171646l0 108.686646c0 15.00647 -53.70056 27.17163 -119.9436 27.17163c-66.24298 0 -119.94357 -12.165161 -119.94357 -27.17163z" fill-rule="evenodd"/><path fill="#cf6c37" d="m258.7953 311.1076l0 0c0 -15.0065 53.70056 -27.171661 119.94354 -27.171661c66.24301 0 119.94357 12.165161 119.94357 27.171661l0 108.686615c0 15.0065 -53.70056 27.171661 -119.94357 27.171661c-66.24298 0 -119.94354 -12.165161 -119.94354 -27.171661z" fill-rule="evenodd"/><path fill="#000000" fill-opacity="0.0" d="m498.6824 311.1076l0 0c0 15.0065 -53.70056 27.171661 -119.94357 27.171661c-66.24298 0 -119.94354 -12.165161 -119.94354 -27.171661" fill-rule="evenodd"/><path fill="#000000" fill-opacity="0.0" d="m258.7953 311.1076l0 0c0 -15.0065 53.70056 -27.171661 119.94354 -27.171661c66.24301 0 119.94357 12.165161 119.94357 27.171661l0 108.686615c0 15.0065 -53.70056 27.171661 -119.94357 27.171661c-66.24298 0 -119.94354 -12.165161 -119.94354 -27.171661z" fill-rule="evenodd"/><path stroke="#ffffff" stroke-width="16.0" stroke-linejoin="round" stroke-linecap="butt" d="m498.6824 311.1076l0 0c0 15.0065 -53.70056 27.171661 -119.94357 27.171661c-66.24298 0 -119.94354 -12.165161 -119.94354 -27.171661" fill-rule="evenodd"/><path stroke="#ffffff" stroke-width="16.0" stroke-linejoin="round" stroke-linecap="butt" d="m258.7953 311.1076l0 0c0 -15.0065 53.70056 -27.171661 119.94354 -27.171661c66.24301 0 119.94357 12.165161 119.94357 27.171661l0 108.686615c0 15.0065 -53.70056 27.171661 -119.94357 27.171661c-66.24298 0 -119.94354 -12.165161 -119.94354 -27.171661z" fill-rule="evenodd"/><path fill="#cf6c37" d="m18.908136 246.2511l0 0c0 -15.0065 53.70057 -27.171661 119.943565 -27.171661c66.24301 0 119.94359 12.165161 119.94359 27.171661l0 108.686615c0 15.0065 -53.700577 27.171661 -119.94359 27.171661c-66.243 0 -119.943565 -12.165161 -119.943565 -27.171661z" fill-rule="evenodd"/><path fill="#000000" fill-opacity="0.0" d="m258.7953 246.2511l0 0c0 15.00647 -53.700577 27.171661 -119.94359 27.171661c-66.243 0 -119.943565 -12.165192 -119.943565 -27.171661" fill-rule="evenodd"/><path fill="#000000" fill-opacity="0.0" d="m18.908136 246.2511l0 0c0 -15.0065 53.70057 -27.171661 119.943565 -27.171661c66.24301 0 119.94359 12.165161 119.94359 27.171661l0 108.686615c0 15.0065 -53.700577 27.171661 -119.94359 27.171661c-66.243 0 -119.943565 -12.165161 -119.943565 -27.171661z" fill-rule="evenodd"/><path stroke="#ffffff" stroke-width="16.0" stroke-linejoin="round" stroke-linecap="butt" d="m258.7953 246.2511l0 0c0 15.00647 -53.700577 27.171661 -119.94359 27.171661c-66.243 0 -119.943565 -12.165192 -119.943565 -27.171661" fill-rule="evenodd"/><path stroke="#ffffff" stroke-width="16.0" stroke-linejoin="round" stroke-linecap="butt" d="m18.908136 246.2511l0 0c0 -15.0065 53.70057 -27.171661 119.943565 -27.171661c66.24301 0 119.94359 12.165161 119.94359 27.171661l0 108.686615c0 15.0065 -53.700577 27.171661 -119.94359 27.171661c-66.243 0 -119.943565 -12.165161 -119.943565 -27.171661z" fill-rule="evenodd"/><path fill="#90e4e4" d="m258.7953 243.20045l0 0c0 -15.006485 53.70056 -27.171646 119.94354 -27.171646c66.24301 0 119.94357 12.165161 119.94357 27.171646l0 108.68663c0 15.0065 -53.70056 27.171661 -119.94357 27.171661c-66.24298 0 -119.94354 -12.165161 -119.94354 -27.171661z" fill-rule="evenodd"/><path fill="#000000" fill-opacity="0.0" d="m498.6824 243.20045l0 0c0 15.006485 -53.70056 27.171646 -119.94357 27.171646c-66.24298 0 -119.94354 -12.165161 -119.94354 -27.171646" fill-rule="evenodd"/><path fill="#000000" fill-opacity="0.0" d="m258.7953 243.20045l0 0c0 -15.006485 53.70056 -27.171646 119.94354 -27.171646c66.24301 0 119.94357 12.165161 119.94357 27.171646l0 108.68663c0 15.0065 -53.70056 27.171661 -119.94357 27.171661c-66.24298 0 -119.94354 -12.165161 -119.94354 -27.171661z" fill-rule="evenodd"/><path stroke="#ffffff" stroke-width="16.0" stroke-linejoin="round" stroke-linecap="butt" d="m498.6824 243.20045l0 0c0 15.006485 -53.70056 27.171646 -119.94357 27.171646c-66.24298 0 -119.94354 -12.165161 -119.94354 -27.171646" fill-rule="evenodd"/><path stroke="#ffffff" stroke-width="16.0" stroke-linejoin="round" stroke-linecap="butt" d="m258.7953 243.20045l0 0c0 -15.006485 53.70056 -27.171646 119.94354 -27.171646c66.24301 0 119.94357 12.165161 119.94357 27.171646l0 108.68663c0 15.0065 -53.70056 27.171661 -119.94357 27.171661c-66.24298 0 -119.94354 -12.165161 -119.94354 -27.171661z" fill-rule="evenodd"/><path fill="#cf6c37" d="m498.6824 206.2511l0 0c0 -15.0065 53.700592 -27.171661 119.94357 -27.171661c66.24304 0 119.9436 12.165161 119.9436 27.171661l0 108.686615c0 15.0065 -53.70056 27.171661 -119.9436 27.171661c-66.24298 0 -119.94357 -12.165161 -119.94357 -27.171661z" fill-rule="evenodd"/><path fill="#000000" fill-opacity="0.0" d="m738.5696 206.2511l0 0c0 15.006485 -53.70056 27.171646 -119.9436 27.171646c-66.24298 0 -119.94357 -12.165161 -119.94357 -27.171646" fill-rule="evenodd"/><path fill="#000000" fill-opacity="0.0" d="m498.6824 206.2511l0 0c0 -15.0065 53.700592 -27.171661 119.94357 -27.171661c66.24304 0 119.9436 12.165161 119.9436 27.171661l0 108.686615c0 15.0065 -53.70056 27.171661 -119.9436 27.171661c-66.24298 0 -119.94357 -12.165161 -119.94357 -27.171661z" fill-rule="evenodd"/><path stroke="#ffffff" stroke-width="16.0" stroke-linejoin="round" stroke-linecap="butt" d="m738.5696 206.2511l0 0c0 15.006485 -53.70056 27.171646 -119.9436 27.171646c-66.24298 0 -119.94357 -12.165161 -119.94357 -27.171646" fill-rule="evenodd"/><path stroke="#ffffff" stroke-width="16.0" stroke-linejoin="round" stroke-linecap="butt" d="m498.6824 206.2511l0 0c0 -15.0065 53.700592 -27.171661 119.94357 -27.171661c66.24304 0 119.9436 12.165161 119.9436 27.171661l0 108.686615c0 15.0065 -53.70056 27.171661 -119.9436 27.171661c-66.24298 0 -119.94357 -12.165161 -119.94357 -27.171661z" fill-rule="evenodd"/><path fill="#20b7b7" d="m18.908136 196.9541l0 0c0 -15.006485 53.70057 -27.171646 119.943565 -27.171646c66.24301 0 119.94359 12.165161 119.94359 27.171646l0 108.686615c0 15.0065 -53.700577 27.171661 -119.94359 27.171661c-66.243 0 -119.943565 -12.165161 -119.943565 -27.171661z" fill-rule="evenodd"/><path fill="#000000" fill-opacity="0.0" d="m258.7953 196.9541l0 0c0 15.0065 -53.700577 27.171661 -119.94359 27.171661c-66.243 0 -119.943565 -12.165161 -119.943565 -27.171661" fill-rule="evenodd"/><path fill="#000000" fill-opacity="0.0" d="m18.908136 196.9541l0 0c0 -15.006485 53.70057 -27.171646 119.943565 -27.171646c66.24301 0 119.94359 12.165161 119.94359 27.171646l0 108.686615c0 15.0065 -53.700577 27.171661 -119.94359 27.171661c-66.243 0 -119.943565 -12.165161 -119.943565 -27.171661z" fill-rule="evenodd"/><path stroke="#ffffff" stroke-width="16.0" stroke-linejoin="round" stroke-linecap="butt" d="m258.7953 196.9541l0 0c0 15.0065 -53.700577 27.171661 -119.94359 27.171661c-66.243 0 -119.943565 -12.165161 -119.943565 -27.171661" fill-rule="evenodd"/><path stroke="#ffffff" stroke-width="16.0" stroke-linejoin="round" stroke-linecap="butt" d="m18.908136 196.9541l0 0c0 -15.006485 53.70057 -27.171646 119.943565 -27.171646c66.24301 0 119.94359 12.165161 119.94359 27.171646l0 108.686615c0 15.0065 -53.700577 27.171661 -119.94359 27.171661c-66.243 0 -119.943565 -12.165161 -119.943565 -27.171661z" fill-rule="evenodd"/><path fill="#20b7b7" d="m258.7953 140.9541l0 0c0 -15.006485 53.70056 -27.171654 119.94354 -27.171654c66.24301 0 119.94357 12.165169 119.94357 27.171654l0 108.68663c0 15.006485 -53.70056 27.171646 -119.94357 27.171646c-66.24298 0 -119.94354 -12.165161 -119.94354 -27.171646z" fill-rule="evenodd"/><path fill="#000000" fill-opacity="0.0" d="m498.6824 140.9541l0 0c0 15.0065 -53.70056 27.171661 -119.94357 27.171661c-66.24298 0 -119.94354 -12.165161 -119.94354 -27.171661" fill-rule="evenodd"/><path fill="#000000" fill-opacity="0.0" d="m258.7953 140.9541l0 0c0 -15.006485 53.70056 -27.171654 119.94354 -27.171654c66.24301 0 119.94357 12.165169 119.94357 27.171654l0 108.68663c0 15.006485 -53.70056 27.171646 -119.94357 27.171646c-66.24298 0 -119.94354 -12.165161 -119.94354 -27.171646z" fill-rule="evenodd"/><path stroke="#ffffff" stroke-width="16.0" stroke-linejoin="round" stroke-linecap="butt" d="m498.6824 140.9541l0 0c0 15.0065 -53.70056 27.171661 -119.94357 27.171661c-66.24298 0 -119.94354 -12.165161 -119.94354 -27.171661" fill-rule="evenodd"/><path stroke="#ffffff" stroke-width="16.0" stroke-linejoin="round" stroke-linecap="butt" d="m258.7953 140.9541l0 0c0 -15.006485 53.70056 -27.171654 119.94354 -27.171654c66.24301 0 119.94357 12.165169 119.94357 27.171654l0 108.68663c0 15.006485 -53.70056 27.171646 -119.94357 27.171646c-66.24298 0 -119.94354 -12.165161 -119.94354 -27.171646z" fill-rule="evenodd"/><path fill="#90e4e4" d="m18.908136 97.73517l0 0c0 -15.006493 53.70057 -27.171661 119.943565 -27.171661c66.24301 0 119.94359 12.165169 119.94359 27.171661l0 108.686615c0 15.0065 -53.700577 27.171661 -119.94359 27.171661c-66.243 0 -119.943565 -12.165161 -119.943565 -27.171661z" fill-rule="evenodd"/><path fill="#000000" fill-opacity="0.0" d="m258.7953 97.73517l0 0c0 15.006485 -53.700577 27.171654 -119.94359 27.171654c-66.243 0 -119.943565 -12.165169 -119.943565 -27.171654" fill-rule="evenodd"/><path fill="#000000" fill-opacity="0.0" d="m18.908136 97.73517l0 0c0 -15.006493 53.70057 -27.171661 119.943565 -27.171661c66.24301 0 119.94359 12.165169 119.94359 27.171661l0 108.686615c0 15.0065 -53.700577 27.171661 -119.94359 27.171661c-66.243 0 -119.943565 -12.165161 -119.943565 -27.171661z" fill-rule="evenodd"/><path stroke="#ffffff" stroke-width="16.0" stroke-linejoin="round" stroke-linecap="butt" d="m258.7953 97.73517l0 0c0 15.006485 -53.700577 27.171654 -119.94359 27.171654c-66.243 0 -119.943565 -12.165169 -119.943565 -27.171654" fill-rule="evenodd"/><path stroke="#ffffff" stroke-width="16.0" stroke-linejoin="round" stroke-linecap="butt" d="m18.908136 97.73517l0 0c0 -15.006493 53.70057 -27.171661 119.943565 -27.171661c66.24301 0 119.94359 12.165169 119.94359 27.171661l0 108.686615c0 15.0065 -53.700577 27.171661 -119.94359 27.171661c-66.243 0 -119.943565 -12.165161 -119.943565 -27.171661z" fill-rule="evenodd"/><path fill="#cf6c37" d="m258.7953 97.73517l0 0c0 -15.006493 53.70056 -27.171661 119.94354 -27.171661c66.24301 0 119.94357 12.165169 119.94357 27.171661l0 108.686615c0 15.0065 -53.70056 27.171661 -119.94357 27.171661c-66.24298 0 -119.94354 -12.165161 -119.94354 -27.171661z" fill-rule="evenodd"/><path fill="#000000" fill-opacity="0.0" d="m498.6824 97.73517l0 0c0 15.006485 -53.70056 27.171654 -119.94357 27.171654c-66.24298 0 -119.94354 -12.165169 -119.94354 -27.171654" fill-rule="evenodd"/><path fill="#000000" fill-opacity="0.0" d="m258.7953 97.73517l0 0c0 -15.006493 53.70056 -27.171661 119.94354 -27.171661c66.24301 0 119.94357 12.165169 119.94357 27.171661l0 108.686615c0 15.0065 -53.70056 27.171661 -119.94357 27.171661c-66.24298 0 -119.94354 -12.165161 -119.94354 -27.171661z" fill-rule="evenodd"/><path stroke="#ffffff" stroke-width="16.0" stroke-linejoin="round" stroke-linecap="butt" d="m498.6824 97.73517l0 0c0 15.006485 -53.70056 27.171654 -119.94357 27.171654c-66.24298 0 -119.94354 -12.165169 -119.94354 -27.171654" fill-rule="evenodd"/><path stroke="#ffffff" stroke-width="16.0" stroke-linejoin="round" stroke-linecap="butt" d="m258.7953 97.73517l0 0c0 -15.006493 53.70056 -27.171661 119.94354 -27.171661c66.24301 0 119.94357 12.165169 119.94357 27.171661l0 108.686615c0 15.0065 -53.70056 27.171661 -119.94357 27.171661c-66.24298 0 -119.94354 -12.165161 -119.94354 -27.171661z" fill-rule="evenodd"/><path fill="#90e4e4" d="m498.6824 145.73517l0 0c0 -15.0065 53.700592 -27.171661 119.94357 -27.171661c66.24304 0 119.9436 12.165161 119.9436 27.171661l0 108.686615c0 15.0065 -53.70056 27.171661 -119.9436 27.171661c-66.24298 0 -119.94357 -12.165161 -119.94357 -27.171661z" fill-rule="evenodd"/><path fill="#000000" fill-opacity="0.0" d="m738.5696 145.73517l0 0c0 15.006485 -53.70056 27.171646 -119.9436 27.171646c-66.24298 0 -119.94357 -12.165161 -119.94357 -27.171646" fill-rule="evenodd"/><path fill="#000000" fill-opacity="0.0" d="m498.6824 145.73517l0 0c0 -15.0065 53.700592 -27.171661 119.94357 -27.171661c66.24304 0 119.9436 12.165161 119.9436 27.171661l0 108.686615c0 15.0065 -53.70056 27.171661 -119.9436 27.171661c-66.24298 0 -119.94357 -12.165161 -119.94357 -27.171661z" fill-rule="evenodd"/><path stroke="#ffffff" stroke-width="16.0" stroke-linejoin="round" stroke-linecap="butt" d="m738.5696 145.73517l0 0c0 15.006485 -53.70056 27.171646 -119.9436 27.171646c-66.24298 0 -119.94357 -12.165161 -119.94357 -27.171646" fill-rule="evenodd"/><path stroke="#ffffff" stroke-width="16.0" stroke-linejoin="round" stroke-linecap="butt" d="m498.6824 145.73517l0 0c0 -15.0065 53.700592 -27.171661 119.94357 -27.171661c66.24304 0 119.9436 12.165161 119.9436 27.171661l0 108.686615c0 15.0065 -53.70056 27.171661 -119.9436 27.171661c-66.24298 0 -119.94357 -12.165161 -119.94357 -27.171661z" fill-rule="evenodd"/><path fill="#20b7b7" d="m258.80005 44.976948l0 0c0 -15.006569 53.700867 -27.171797 119.944275 -27.171797c66.24338 0 119.944244 12.165228 119.944244 27.171797l0 108.687195c0 15.006561 -53.700867 27.171799 -119.944244 27.171799c-66.24341 0 -119.944275 -12.165237 -119.944275 -27.171799z" fill-rule="evenodd"/><path fill="#000000" fill-opacity="0.0" d="m498.68857 44.976948l0 0c0 15.006569 -53.700867 27.171795 -119.944244 27.171795c-66.24341 0 -119.944275 -12.165226 -119.944275 -27.171795" fill-rule="evenodd"/><path fill="#000000" fill-opacity="0.0" d="m258.80005 44.976948l0 0c0 -15.006569 53.700867 -27.171797 119.944275 -27.171797c66.24338 0 119.944244 12.165228 119.944244 27.171797l0 108.687195c0 15.006561 -53.700867 27.171799 -119.944244 27.171799c-66.24341 0 -119.944275 -12.165237 -119.944275 -27.171799z" fill-rule="evenodd"/><path stroke="#ffffff" stroke-width="16.0" stroke-linejoin="round" stroke-linecap="butt" d="m498.68857 44.976948l0 0c0 15.006569 -53.700867 27.171795 -119.944244 27.171795c-66.24341 0 -119.944275 -12.165226 -119.944275 -27.171795" fill-rule="evenodd"/><path stroke="#ffffff" stroke-width="16.0" stroke-linejoin="round" stroke-linecap="butt" d="m258.80005 44.976948l0 0c0 -15.006569 53.700867 -27.171797 119.944275 -27.171797c66.24338 0 119.944244 12.165228 119.944244 27.171797l0 108.687195c0 15.006561 -53.700867 27.171799 -119.944244 27.171799c-66.24341 0 -119.944275 -12.165237 -119.944275 -27.171799z" fill-rule="evenodd"/><path fill="#20b7b7" d="m18.911554 44.976948l0 0c0 -15.006569 53.700874 -27.171797 119.94425 -27.171797c66.24338 0 119.944244 12.165228 119.944244 27.171797l0 108.687195c0 15.006561 -53.700867 27.171799 -119.944244 27.171799c-66.24338 0 -119.94425 -12.165237 -119.94425 -27.171799z" fill-rule="evenodd"/><path fill="#000000" fill-opacity="0.0" d="m258.80005 44.976948l0 0c0 15.006569 -53.700867 27.171795 -119.944244 27.171795c-66.24338 0 -119.94425 -12.165226 -119.94425 -27.171795" fill-rule="evenodd"/><path fill="#000000" fill-opacity="0.0" d="m18.911554 44.976948l0 0c0 -15.006569 53.700874 -27.171797 119.94425 -27.171797c66.24338 0 119.944244 12.165228 119.944244 27.171797l0 108.687195c0 15.006561 -53.700867 27.171799 -119.944244 27.171799c-66.24338 0 -119.94425 -12.165237 -119.94425 -27.171799z" fill-rule="evenodd"/><path stroke="#ffffff" stroke-width="16.0" stroke-linejoin="round" stroke-linecap="butt" d="m258.80005 44.976948l0 0c0 15.006569 -53.700867 27.171795 -119.944244 27.171795c-66.24338 0 -119.94425 -12.165226 -119.94425 -27.171795" fill-rule="evenodd"/><path stroke="#ffffff" stroke-width="16.0" stroke-linejoin="round" stroke-linecap="butt" d="m18.911554 44.976948l0 0c0 -15.006569 53.700874 -27.171797 119.94425 -27.171797c66.24338 0 119.944244 12.165228 119.944244 27.171797l0 108.687195c0 15.006561 -53.700867 27.171799 -119.944244 27.171799c-66.24338 0 -119.94425 -12.165237 -119.94425 -27.171799z" fill-rule="evenodd"/><path fill="#20b7b7" d="m498.68857 44.976948l0 0c0 -15.006569 53.700836 -27.171797 119.944244 -27.171797c66.24341 0 119.944275 12.165228 119.944275 27.171797l0 108.687195c0 15.006561 -53.700867 27.171799 -119.944275 27.171799c-66.24341 0 -119.944244 -12.165237 -119.944244 -27.171799z" fill-rule="evenodd"/><path fill="#000000" fill-opacity="0.0" d="m738.5771 44.976948l0 0c0 15.006569 -53.700867 27.171795 -119.944275 27.171795c-66.24341 0 -119.944244 -12.165226 -119.944244 -27.171795" fill-rule="evenodd"/><path fill="#000000" fill-opacity="0.0" d="m498.68857 44.976948l0 0c0 -15.006569 53.700836 -27.171797 119.944244 -27.171797c66.24341 0 119.944275 12.165228 119.944275 27.171797l0 108.687195c0 15.006561 -53.700867 27.171799 -119.944275 27.171799c-66.24341 0 -119.944244 -12.165237 -119.944244 -27.171799z" fill-rule="evenodd"/><path stroke="#ffffff" stroke-width="16.0" stroke-linejoin="round" stroke-linecap="butt" d="m738.5771 44.976948l0 0c0 15.006569 -53.700867 27.171795 -119.944275 27.171795c-66.24341 0 -119.944244 -12.165226 -119.944244 -27.171795" fill-rule="evenodd"/><path stroke="#ffffff" stroke-width="16.0" stroke-linejoin="round" stroke-linecap="butt" d="m498.68857 44.976948l0 0c0 -15.006569 53.700836 -27.171797 119.944244 -27.171797c66.24341 0 119.944275 12.165228 119.944275 27.171797l0 108.687195c0 15.006561 -53.700867 27.171799 -119.944275 27.171799c-66.24341 0 -119.944244 -12.165237 -119.944244 -27.171799z" fill-rule="evenodd"/><path fill="#20b7b7" d="m249.59055 91.12141l0 0c0 -1.6181107 1.3117371 -2.9298477 2.9298553 -2.9298477l11.719009 0l0 0c0.7770691 0 1.5222778 0.3086853 2.0717163 0.8581314c0.549469 0.54945374 0.8581543 1.2946701 0.8581543 2.0717163l0 40.328682c0 1.618103 -1.3117371 2.92984 -2.9298706 2.92984l-11.719009 0c-1.6181183 0 -2.9298553 -1.3117371 -2.9298553 -2.92984z" fill-rule="evenodd"/><path fill="#20b7b7" d="m490.3189 91.12141l0 0c0 -1.6181107 1.3117371 -2.9298477 2.9298706 -2.9298477l11.719025 0l0 0c0.7770386 0 1.5222473 0.3086853 2.0717163 0.8581314c0.5494385 0.54945374 0.8581238 1.2946701 0.8581238 2.0717163l0 40.328682c0 1.618103 -1.3117371 2.92984 -2.92984 2.92984l-11.719025 0c-1.6181335 0 -2.9298706 -1.3117371 -2.9298706 -2.92984z" fill-rule="evenodd"/></g></svg>