<?xml version="1.0" standalone="no"?>
<!DOCTYPE svg PUBLIC "-//W3C//DTD SVG 20010904//EN"
 "http://www.w3.org/TR/2001/REC-SVG-20010904/DTD/svg10.dtd">
<svg version="1.0" xmlns="http://www.w3.org/2000/svg"
 width="250.000000pt" height="250.000000pt" viewBox="0 0 250.000000 250.000000"
 preserveAspectRatio="xMidYMid meet">
<metadata>
Created by potrace 1.11, written by Peter Selinger 2001-2013
</metadata>
<g transform="translate(0.000000,250.000000) scale(0.100000,-0.100000)"
fill="#000000" stroke="none">
<path d="M2245 1918 c-27 -15 -71 -64 -157 -178 -40 -52 -77 -100 -83 -106 -5
-6 -26 -31 -47 -55 -75 -91 -181 -192 -322 -306 -46 -38 -190 -126 -273 -168
l-92 -46 -103 1 c-57 0 -123 2 -148 5 -25 3 -72 7 -105 10 -64 6 -291 35 -395
50 -174 25 -347 26 -383 2 -34 -22 -34 -34 3 -79 78 -94 395 -266 695 -377
305 -112 567 -152 702 -107 212 71 397 274 567 621 140 286 220 489 232 587 4
29 8 56 10 59 2 3 -1 23 -7 43 -7 25 -18 40 -35 46 -31 12 -34 12 -59 -2z"/>
</g>
</svg>
